<svg width="28" height="30" viewBox="0 0 28 30" fill="none" xmlns="http://www.w3.org/2000/svg">
<g filter="url(#filter0_d_384_904)">
<path d="M9.8 2H18.2C21.4 2 24 4.6 24 7.8V16.2C24 17.7383 23.3889 19.2135 22.3012 20.3012C21.2135 21.3889 19.7383 22 18.2 22H9.8C6.6 22 4 19.4 4 16.2V7.8C4 6.26174 4.61107 4.78649 5.69878 3.69878C6.78649 2.61107 8.26174 2 9.8 2ZM9.6 4C8.64522 4 7.72955 4.37928 7.05442 5.05442C6.37928 5.72955 6 6.64522 6 7.6V16.4C6 18.39 7.61 20 9.6 20H18.4C19.3548 20 20.2705 19.6207 20.9456 18.9456C21.6207 18.2705 22 17.3548 22 16.4V7.6C22 5.61 20.39 4 18.4 4H9.6ZM19.25 5.5C19.5815 5.5 19.8995 5.6317 20.1339 5.86612C20.3683 6.10054 20.5 6.41848 20.5 6.75C20.5 7.08152 20.3683 7.39946 20.1339 7.63388C19.8995 7.8683 19.5815 8 19.25 8C18.9185 8 18.6005 7.8683 18.3661 7.63388C18.1317 7.39946 18 7.08152 18 6.75C18 6.41848 18.1317 6.10054 18.3661 5.86612C18.6005 5.6317 18.9185 5.5 19.25 5.5ZM14 7C15.3261 7 16.5979 7.52678 17.5355 8.46447C18.4732 9.40215 19 10.6739 19 12C19 13.3261 18.4732 14.5979 17.5355 15.5355C16.5979 16.4732 15.3261 17 14 17C12.6739 17 11.4021 16.4732 10.4645 15.5355C9.52678 14.5979 9 13.3261 9 12C9 10.6739 9.52678 9.40215 10.4645 8.46447C11.4021 7.52678 12.6739 7 14 7ZM14 9C13.2044 9 12.4413 9.31607 11.8787 9.87868C11.3161 10.4413 11 11.2044 11 12C11 12.7956 11.3161 13.5587 11.8787 14.1213C12.4413 14.6839 13.2044 15 14 15C14.7956 15 15.5587 14.6839 16.1213 14.1213C16.6839 13.5587 17 12.7956 17 12C17 11.2044 16.6839 10.4413 16.1213 9.87868C15.5587 9.31607 14.7956 9 14 9Z" fill="black"/>
</g>
<defs>
<filter id="filter0_d_384_904" x="-2" y="0" width="32" height="32" filterUnits="userSpaceOnUse" color-interpolation-filters="sRGB">
<feFlood flood-opacity="0" result="BackgroundImageFix"/>
<feColorMatrix in="SourceAlpha" type="matrix" values="0 0 0 0 0 0 0 0 0 0 0 0 0 0 0 0 0 0 127 0" result="hardAlpha"/>
<feOffset dy="4"/>
<feGaussianBlur stdDeviation="2"/>
<feComposite in2="hardAlpha" operator="out"/>
<feColorMatrix type="matrix" values="0 0 0 0 0 0 0 0 0 0 0 0 0 0 0 0 0 0 0.25 0"/>
<feBlend mode="normal" in2="BackgroundImageFix" result="effect1_dropShadow_384_904"/>
<feBlend mode="normal" in="SourceGraphic" in2="effect1_dropShadow_384_904" result="shape"/>
</filter>
</defs>
</svg>
